<mxfile host="app.diagrams.net" modified="2022-09-07T16:04:23.570Z" agent="5.0 (Windows NT 10.0; Win64; x64) AppleWebKit/537.36 (KHTML, like Gecko) Chrome/104.0.0.0 Safari/537.36" etag="ZwTCx6zqP4viPVIMJVBO" version="20.2.7" type="github">
  <diagram id="_w1JCg6EqOM37gw5eG3X" name="Page-1">
    <mxGraphModel dx="1829" dy="1026" grid="1" gridSize="10" guides="1" tooltips="1" connect="1" arrows="1" fold="1" page="1" pageScale="1" pageWidth="1100" pageHeight="850" math="0" shadow="0">
      <root>
        <mxCell id="0" />
        <mxCell id="1" parent="0" />
        <mxCell id="UIXsOhcggGlsP8njGOUC-1" value="&lt;h1&gt;Monotonic Array&lt;/h1&gt;&lt;p&gt;&lt;/p&gt;&lt;ul&gt;&lt;li&gt;Write a function that takes in an array of integers and returns a boolean representing whether the array is monotonic&lt;/li&gt;&lt;li&gt;An array is monotonic if its elements, from left to right, are entirely non-increasing or entirely non-decreasing&lt;/li&gt;&lt;li&gt;Non-increasing elements are necessarily exclusively decreasing; they simply don&#39;t increase.&lt;/li&gt;&lt;ul&gt;&lt;li&gt;Similarly, non-decreasing elements aren&#39;t necessarily exclusive increasing; they simply don&#39;t decrease&lt;/li&gt;&lt;/ul&gt;&lt;li&gt;Note that empty arrays and arrays of one element are monotonic&lt;/li&gt;&lt;/ul&gt;&lt;p&gt;&lt;/p&gt;" style="text;html=1;strokeColor=none;fillColor=none;spacing=5;spacingTop=-20;whiteSpace=wrap;overflow=hidden;rounded=0;" vertex="1" parent="1">
          <mxGeometry x="70" y="40" width="480" height="180" as="geometry" />
        </mxCell>
      </root>
    </mxGraphModel>
  </diagram>
</mxfile>
